# Blender 4.2.1 LTS
# www.blender.org
o Icosphere
v 0.074215 -0.242006 0.435832
v -0.391567 -0.242005 0.205262
v -0.074215 0.242006 -0.435832
v 0.391567 0.242005 -0.205262
v -0.437436 0.242004 -0.064095
v -0.020825 0.499482 -0.064095
v 0.044079 -0.354927 -0.357335
v 0.062081 -0.463766 -0.191067
v -0.162532 -0.463766 -0.118085
v -0.200816 -0.262933 -0.382071
v 0.074215 -0.242006 -0.435832
v -0.391567 -0.242005 -0.205262
v -0.162532 -0.463766 0.118085
v -0.326225 -0.354926 0.152344
v 0.200901 -0.463765 0.000000
v 0.301318 -0.262933 -0.309052
v 0.437436 -0.242004 -0.064095
v 0.100415 -0.387096 0.309051
v 0.020825 -0.499482 0.064095
v 0.387039 -0.262932 0.191068
v 0.239470 -0.314696 0.315000
v -0.200816 -0.262933 0.382072
v -0.487491 0.062028 -0.118086
v -0.487491 0.062028 0.118085
v 0.038335 -0.062029 -0.500122
v -0.394259 -0.134457 -0.286444
v -0.262950 0.062029 -0.427141
v 0.487491 -0.062028 -0.118085
v 0.324979 0.062029 -0.382074
v 0.394259 0.134457 0.286443
v 0.262950 -0.062029 0.427141
v 0.487491 -0.062028 0.118085
v -0.150592 0.134458 0.463478
v -0.324979 -0.062029 0.382074
v 0.038335 -0.062029 0.500122
v -0.301318 0.262933 -0.309052
v 0.200816 0.262933 -0.382071
v 0.391567 0.242005 0.205262
v 0.200816 0.262933 0.382072
v -0.074215 0.242006 0.435832
v -0.387039 0.262932 0.191068
v -0.100415 0.387096 -0.309051
v -0.200901 0.463765 -0.000000
v 0.162532 0.463766 -0.118085
v 0.162532 0.463766 0.118085
v 0.326225 0.354926 0.152344
v -0.062080 0.463766 0.191067
v -0.180776 0.292508 0.370578
v -0.208286 0.414532 0.201700
v -0.319097 0.361805 0.131432
v 0.069099 0.447215 0.212660
v 0.106042 0.371684 0.326356
v 0.223605 0.447215 0.000000
v 0.326225 0.354926 -0.152344
v 0.069099 0.447215 -0.212660
v 0.106042 0.371684 -0.326356
v -0.180900 0.447215 -0.131431
v -0.223605 0.361806 -0.262864
v -0.353468 0.354926 -0.068500
v -0.430902 0.138198 0.212661
v -0.404510 0.000000 0.293891
v -0.335410 0.138199 0.344095
v 0.069099 0.138199 0.475528
v 0.154508 -0.000000 0.475528
v 0.223608 0.138199 0.425324
v 0.459958 0.206431 0.043551
v 0.500000 0.000000 -0.000000
v 0.463347 0.133060 -0.152345
v 0.223608 0.138198 -0.425324
v 0.154509 -0.000000 -0.475528
v -0.001707 0.133060 -0.487746
v -0.335410 0.138198 -0.344095
v -0.404509 -0.000001 -0.293891
v -0.430902 0.138197 -0.212662
v -0.154509 -0.000000 0.475528
v -0.223608 -0.138199 0.425324
v -0.069100 -0.138199 0.475527
v 0.404509 -0.000000 0.293892
v 0.335409 -0.138199 0.344095
v 0.430902 -0.138198 0.212662
v 0.404509 0.000000 -0.293892
v 0.430902 -0.138198 -0.212662
v 0.285308 -0.133061 -0.395599
v -0.154509 0.000000 -0.475528
v -0.069100 -0.138199 -0.475527
v -0.223608 -0.138199 -0.425324
v -0.500000 0.000000 0.000000
v -0.459958 -0.206431 -0.043551
v -0.463347 -0.133060 0.152345
v -0.106042 -0.371684 0.326357
v -0.069098 -0.447215 0.212661
v 0.180901 -0.447214 0.131431
v 0.353468 -0.354926 0.068500
v 0.319097 -0.361805 -0.131432
v 0.208286 -0.414532 -0.201700
v -0.326225 -0.354926 -0.152344
v -0.223605 -0.447214 -0.000000
v -0.127466 -0.414532 -0.260420
vn 0.1519 -0.4773 0.8655
vn -0.7666 -0.4756 0.4315
vn -0.1625 0.4850 -0.8593
vn 0.7666 0.4756 -0.4315
vn -0.8738 0.4734 -0.1115
vn -0.0370 0.9928 -0.1138
vn 0.0894 -0.6965 -0.7119
vn 0.1031 -0.9307 -0.3510
vn -0.2970 -0.9304 -0.2149
vn -0.3949 -0.5363 -0.7460
vn 0.1582 -0.4734 -0.8666
vn -0.7723 -0.4756 -0.4212
vn -0.3250 -0.9158 0.2359
vn -0.6451 -0.7075 0.2884
vn 0.3920 -0.9198 -0.0160
vn 0.5936 -0.5318 -0.6040
vn 0.8709 -0.4766 -0.1203
vn 0.1859 -0.7823 0.5945
vn 0.0370 -0.9928 0.1138
vn 0.7680 -0.5225 0.3703
vn 0.4877 -0.6122 0.6223
vn -0.4107 -0.5262 0.7446
vn -0.9683 0.0938 -0.2313
vn -0.9638 0.1439 0.2246
vn 0.0873 -0.1254 -0.9883
vn -0.7820 -0.2545 -0.5689
vn -0.5141 0.1299 -0.8479
vn 0.9660 -0.1242 -0.2270
vn 0.6507 0.1444 -0.7455
vn 0.7820 0.2545 0.5689
vn 0.5185 -0.1320 0.8448
vn 0.9667 -0.1137 0.2292
vn -0.3096 0.2370 0.9209
vn -0.6475 -0.1299 0.7509
vn 0.0769 -0.1096 0.9910
vn -0.5932 0.5241 -0.6111
vn 0.4077 0.5213 -0.7497
vn 0.7723 0.4756 0.4212
vn 0.4042 0.5286 0.7464
vn -0.0898 0.5102 0.8554
vn -0.7660 0.5242 0.3721
vn -0.1921 0.7701 -0.6084
vn -0.3920 0.9198 0.0160
vn 0.3250 0.9158 -0.2359
vn 0.3064 0.9228 0.2336
vn 0.6365 0.7144 0.2909
vn -0.1117 0.9183 0.3798
vn -0.3684 0.6037 0.7070
vn -0.4153 0.8079 0.4182
vn -0.6526 0.7211 0.2326
vn 0.1371 0.8963 0.4218
vn 0.1940 0.7328 0.6523
vn 0.4826 0.8759 -0.0000
vn 0.6451 0.7075 -0.2884
vn 0.1019 0.8992 -0.4255
vn 0.2187 0.7276 -0.6502
vn -0.3514 0.8882 -0.2959
vn -0.4655 0.7274 -0.5042
vn -0.6989 0.7005 -0.1441
vn -0.8590 0.2719 0.4339
vn -0.8205 -0.0130 0.5715
vn -0.6514 0.2881 0.7019
vn 0.1208 0.2849 0.9509
vn 0.3090 0.0101 0.9510
vn 0.4715 0.2532 0.8448
vn 0.9084 0.4098 0.0832
vn 0.9995 0.0280 0.0143
vn 0.9163 0.2592 -0.3053
vn 0.4218 0.2766 -0.8635
vn 0.3257 -0.0028 -0.9455
vn 0.0036 0.2682 -0.9634
vn -0.6781 0.2719 -0.6828
vn -0.8090 -0.0011 -0.5878
vn -0.8457 0.3050 -0.4379
vn -0.3090 0.0011 0.9511
vn -0.4399 -0.2719 0.8559
vn -0.1552 -0.3050 0.9396
vn 0.8090 0.0011 0.5878
vn 0.6644 -0.2990 0.6849
vn 0.8590 -0.2719 0.4339
vn 0.8192 0.0028 -0.5735
vn 0.8396 -0.3040 -0.4502
vn 0.5517 -0.2621 -0.7918
vn -0.2900 0.0130 -0.9569
vn -0.1552 -0.3050 -0.9396
vn -0.4715 -0.2532 -0.8448
vn -0.9995 -0.0280 -0.0143
vn -0.9084 -0.4098 -0.0832
vn -0.9163 -0.2592 0.3053
vn -0.2187 -0.7276 0.6502
vn -0.1019 -0.8992 0.4255
vn 0.3598 -0.8808 0.3077
vn 0.6949 -0.7052 0.1408
vn 0.6607 -0.7046 -0.2588
vn 0.4143 -0.8105 -0.4139
vn -0.6439 -0.7097 -0.2860
vn -0.4826 -0.8759 -0.0000
vn -0.2609 -0.8053 -0.5324
vt 0.181819 0.000000
vt 0.216300 0.059724
vt 0.147338 0.059724
vt 0.909091 0.000000
vt 0.943572 0.059724
vt 0.874610 0.059724
vt 0.612337 0.157461
vt 0.693564 0.137117
vt 0.670845 0.217185
vt 0.430519 0.157461
vt 0.523508 0.157461
vt 0.489027 0.217185
vt 0.114937 0.157461
vt 0.125391 0.217185
vt 0.068182 0.196826
vt 0.842209 0.157461
vt 0.852663 0.217185
vt 0.783701 0.217185
vt 0.601883 0.217185
vt 0.408328 0.196826
vt 0.157792 0.314921
vt 0.250781 0.314921
vt 0.216300 0.374645
vt 0.000000 0.314921
vt 0.068963 0.314921
vt 0.022727 0.354286
vt 0.339609 0.314921
vt 0.432599 0.314921
vt 0.386364 0.354286
vt 0.420065 0.412658
vt 0.489027 0.412658
vt 0.454546 0.472382
vt 0.431819 0.354286
vt 0.465910 0.373969
vt 0.511364 0.334603
vt 0.601883 0.412658
vt 0.670845 0.412658
vt 0.636364 0.472382
vt 0.568182 0.354286
vt 0.636364 0.354286
vt 0.636364 0.393651
vt 0.704546 0.354286
vt 0.569482 0.314921
vt 0.658311 0.314921
vt 0.751300 0.314921
vt 0.783701 0.412658
vt 0.852663 0.412658
vt 0.818182 0.472382
vt 0.818182 0.393651
vt 0.773491 0.354286
vt 0.862873 0.354286
vt 0.806809 0.295223
vt 0.885064 0.314921
vt 0.090910 0.354286
vt 0.056428 0.412658
vt 0.090910 0.393651
vt 0.102924 0.451573
vt 0.147338 0.374645
vt 0.272728 0.393651
vt 0.260714 0.451573
vt 0.307209 0.412658
vt 0.250001 0.354286
vt 0.317419 0.354286
vt 0.398118 0.255197
vt 0.454546 0.236191
vt 0.431819 0.275556
vt 0.477273 0.275556
vt 0.545455 0.275556
vt 0.613637 0.275556
vt 0.636364 0.236191
vt 0.659091 0.275556
vt 0.727273 0.275556
vt 0.818182 0.236191
vt 0.862873 0.275556
vt 0.034482 0.255197
vt 0.090910 0.236191
vt 0.068182 0.275556
vt 0.135601 0.275556
vt 0.216300 0.255197
vt 0.272728 0.196826
vt 0.272728 0.236191
vt 0.250001 0.275556
vt 0.295455 0.275556
vt 0.329156 0.255197
vt 0.545455 0.236191
vt 0.522728 0.196826
vt 0.568182 0.196826
vt 0.727273 0.236191
vt 0.704546 0.196826
vt 0.750000 0.196826
vt 0.749219 0.157461
vt 0.943572 0.255197
vt 0.909091 0.236191
vt 0.886364 0.196826
vt 0.953782 0.196826
vt 0.931038 0.157461
vt 1.000000 0.157461
vt 0.181819 0.236191
vt 0.159092 0.196826
vt 0.204546 0.196826
vt 0.203766 0.157461
vt 0.296755 0.157461
vt 0.352264 0.177159
vt 0.363637 0.236191
vt 0.477273 0.118096
vt 0.510974 0.059724
vt 0.545455 0.118096
vt 0.545455 0.078731
vt 0.557469 0.020809
vt 0.601883 0.097737
vt 0.670845 0.097737
vt 0.715259 0.020809
vt 0.727273 0.078731
vt 0.771964 0.118096
vt 0.761754 0.059724
vt 0.886364 0.118096
vt 0.840909 0.118096
vt 0.920455 0.098413
vt 0.977273 0.118096
vt 0.408328 0.118096
vt 0.318946 0.118096
vt 0.363637 0.078730
vt 0.398118 0.059724
vt 0.329156 0.059724
vt 0.363637 0.000000
vt 0.137128 0.118096
vt 0.193183 0.098413
vt 0.250001 0.118096
s 1
f 19/1/19 9/2/9 8/3/8
f 19/4/19 8/5/8 15/6/15
f 1/7/1 21/8/21 31/9/31
f 2/10/2 22/11/22 34/12/34
f 11/13/11 25/14/25 83/15/83
f 17/16/17 28/17/28 32/18/32
f 1/7/1 31/9/31 35/19/35
f 2/10/2 34/12/34 89/20/89
f 3/21/3 36/22/36 42/23/42
f 4/24/4 37/25/37 54/26/54
f 5/27/5 41/28/41 59/29/59
f 43/30/43 47/31/47 6/32/6
f 59/29/59 50/33/50 43/30/43
f 43/30/43 49/34/49 47/31/47
f 43/30/43 50/33/50 49/34/49
f 49/34/49 48/35/48 47/31/47
f 59/29/59 41/28/41 50/33/50
f 50/33/50 41/28/41 49/34/49
f 41/28/41 48/35/48 49/34/49
f 47/36/47 45/37/45 6/38/6
f 48/39/48 52/40/52 47/36/47
f 47/36/47 51/41/51 45/37/45
f 47/36/47 52/40/52 51/41/51
f 51/41/51 52/40/52 45/37/45
f 52/40/52 46/42/46 45/37/45
f 48/39/48 40/43/40 52/40/52
f 40/43/40 39/44/39 52/40/52
f 52/40/52 39/44/39 46/42/46
f 39/44/39 38/45/38 46/42/46
f 45/46/45 44/47/44 6/48/6
f 45/46/45 53/49/53 44/47/44
f 45/46/45 46/50/46 53/49/53
f 46/50/46 54/51/54 53/49/53
f 53/49/53 54/51/54 44/47/44
f 38/45/38 66/52/66 46/50/46
f 46/50/46 66/52/66 54/51/54
f 66/52/66 4/53/4 54/51/54
f 54/26/54 56/54/56 44/55/44
f 44/55/44 55/56/55 6/57/6
f 55/56/55 42/58/42 6/57/6
f 44/55/44 56/54/56 55/56/55
f 55/56/55 56/54/56 42/58/42
f 54/26/54 37/25/37 56/54/56
f 37/25/37 3/21/3 56/54/56
f 56/54/56 3/21/3 42/58/42
f 42/23/42 57/59/57 6/60/6
f 6/60/6 57/59/57 43/61/43
f 42/23/42 58/62/58 57/59/57
f 58/62/58 59/63/59 57/59/57
f 57/59/57 59/63/59 43/61/43
f 42/23/42 36/22/36 58/62/58
f 58/62/58 36/22/36 59/63/59
f 36/22/36 5/27/5 59/63/59
f 24/64/24 41/28/41 5/27/5
f 89/20/89 61/65/61 24/64/24
f 24/64/24 60/66/60 41/28/41
f 24/64/24 61/65/61 60/66/60
f 61/65/61 62/67/62 60/66/60
f 60/66/60 62/67/62 41/28/41
f 62/67/62 48/35/48 41/28/41
f 89/20/89 34/12/34 61/65/61
f 61/65/61 34/12/34 62/67/62
f 34/12/34 33/68/33 62/67/62
f 62/67/62 33/68/33 48/35/48
f 33/68/33 40/43/40 48/35/48
f 35/19/35 63/69/63 33/68/33
f 33/68/33 63/69/63 40/43/40
f 63/69/63 39/44/39 40/43/40
f 35/19/35 64/70/64 63/69/63
f 64/70/64 65/71/65 63/69/63
f 63/69/63 65/71/65 39/44/39
f 35/19/35 31/9/31 64/70/64
f 64/70/64 31/9/31 65/71/65
f 31/9/31 30/72/30 65/71/65
f 65/71/65 30/72/30 39/44/39
f 30/72/30 38/45/38 39/44/39
f 32/18/32 66/52/66 30/72/30
f 30/72/30 66/52/66 38/45/38
f 32/18/32 67/73/67 66/52/66
f 67/73/67 68/74/68 66/52/66
f 68/74/68 4/53/4 66/52/66
f 32/18/32 28/17/28 67/73/67
f 67/73/67 28/17/28 68/74/68
f 29/75/29 37/25/37 4/24/4
f 83/15/83 70/76/70 29/75/29
f 29/75/29 69/77/69 37/25/37
f 29/75/29 70/76/70 69/77/69
f 70/76/70 71/78/71 69/77/69
f 69/77/69 71/78/71 37/25/37
f 71/78/71 3/21/3 37/25/37
f 83/15/83 25/14/25 70/76/70
f 70/76/70 25/14/25 71/78/71
f 27/79/27 36/22/36 3/21/3
f 26/80/26 73/81/73 27/79/27
f 27/79/27 72/82/72 36/22/36
f 27/79/27 73/81/73 72/82/72
f 73/81/73 74/83/74 72/82/72
f 72/82/72 74/83/74 36/22/36
f 74/83/74 5/27/5 36/22/36
f 26/80/26 23/84/23 73/81/73
f 73/81/73 23/84/23 74/83/74
f 74/83/74 23/84/23 5/27/5
f 34/12/34 75/85/75 33/68/33
f 75/85/75 35/19/35 33/68/33
f 34/12/34 76/86/76 75/85/75
f 76/86/76 77/87/77 75/85/75
f 75/85/75 77/87/77 35/19/35
f 34/12/34 22/11/22 76/86/76
f 76/86/76 22/11/22 77/87/77
f 22/11/22 1/7/1 77/87/77
f 77/87/77 1/7/1 35/19/35
f 31/9/31 78/88/78 30/72/30
f 78/88/78 32/18/32 30/72/30
f 31/9/31 79/89/79 78/88/78
f 79/89/79 80/90/80 78/88/78
f 78/88/78 80/90/80 32/18/32
f 31/9/31 21/8/21 79/89/79
f 21/8/21 20/91/20 79/89/79
f 79/89/79 20/91/20 80/90/80
f 80/90/80 20/91/20 32/18/32
f 20/91/20 17/16/17 32/18/32
f 68/74/68 29/92/29 4/53/4
f 28/17/28 81/93/81 68/74/68
f 68/74/68 81/93/81 29/92/29
f 28/17/28 82/94/82 81/93/81
f 82/94/82 83/95/83 81/93/81
f 81/93/81 83/95/83 29/92/29
f 28/17/28 17/16/17 82/94/82
f 17/16/17 16/96/16 82/94/82
f 82/94/82 16/96/16 83/95/83
f 16/96/16 11/97/11 83/95/83
f 71/78/71 27/79/27 3/21/3
f 25/14/25 84/98/84 71/78/71
f 71/78/71 84/98/84 27/79/27
f 25/14/25 85/99/85 84/98/84
f 85/99/85 86/100/86 84/98/84
f 84/98/84 86/100/86 27/79/27
f 86/100/86 26/80/26 27/79/27
f 25/14/25 11/13/11 85/99/85
f 11/13/11 10/101/10 85/99/85
f 85/99/85 10/101/10 86/100/86
f 86/100/86 10/101/10 26/80/26
f 10/101/10 12/102/12 26/80/26
f 23/84/23 24/64/24 5/27/5
f 26/80/26 88/103/88 23/84/23
f 23/84/23 87/104/87 24/64/24
f 23/84/23 88/103/88 87/104/87
f 88/103/88 89/20/89 87/104/87
f 87/104/87 89/20/89 24/64/24
f 26/80/26 12/102/12 88/103/88
f 88/103/88 2/10/2 89/20/89
f 14/105/14 22/11/22 2/10/2
f 13/106/13 90/107/90 14/105/14
f 14/105/14 90/107/90 22/11/22
f 13/106/13 91/108/91 90/107/90
f 90/107/90 1/7/1 22/11/22
f 13/106/13 19/109/19 91/108/91
f 19/109/19 18/110/18 91/108/91
f 91/108/91 18/110/18 90/107/90
f 90/107/90 18/110/18 1/7/1
f 18/111/18 21/8/21 1/7/1
f 19/112/19 92/113/92 18/111/18
f 18/111/18 92/113/92 21/8/21
f 92/113/92 93/114/93 21/8/21
f 21/8/21 93/114/93 20/91/20
f 19/112/19 15/115/15 92/113/92
f 92/113/92 15/115/15 93/114/93
f 93/114/93 17/16/17 20/91/20
f 15/6/15 94/116/94 93/117/93
f 93/117/93 94/116/94 17/16/17
f 94/116/94 16/96/16 17/16/17
f 15/6/15 95/118/95 94/116/94
f 94/116/94 95/118/95 16/96/16
f 15/6/15 8/5/8 95/118/95
f 8/5/8 7/119/7 95/118/95
f 95/118/95 7/119/7 16/96/16
f 7/119/7 11/97/11 16/96/16
f 88/103/88 14/120/14 2/10/2
f 12/102/12 96/121/96 88/103/88
f 88/103/88 96/121/96 14/120/14
f 96/121/96 97/122/97 14/120/14
f 14/120/14 97/122/97 13/123/13
f 96/121/96 9/124/9 97/122/97
f 97/122/97 9/124/9 13/123/13
f 9/124/9 19/125/19 13/123/13
f 7/126/7 10/101/10 11/13/11
f 8/3/8 98/127/98 7/126/7
f 7/126/7 98/127/98 10/101/10
f 8/3/8 9/2/9 98/127/98
f 9/2/9 96/128/96 98/127/98
f 98/127/98 96/128/96 10/101/10
f 96/128/96 12/102/12 10/101/10
